<?xml version="1.0" encoding="utf-8"?>
<!-- Generator: Adobe Illustrator 28.1.0, SVG Export Plug-In . SVG Version: 6.00 Build 0)  -->
<svg version="1.1" id="Camada_1" xmlns="http://www.w3.org/2000/svg" xmlns:xlink="http://www.w3.org/1999/xlink" x="0px" y="0px"
	 viewBox="0 0 1180 590" style="enable-background:new 0 0 1180 590;" xml:space="preserve">
<style type="text/css">
	.st0{fill:#0A1128;}
	.st1{fill:#6C6C32;}
	.st2{fill:#814E17;}
	.st3{opacity:0.3;}
	.st4{fill:#FFFFFF;}
</style>
<rect class="st0" width="1180" height="590"/>
<path class="st1" d="M813.1,541.9c1.8-0.9,18.3-6.3,18.9-5.5c0.4,0.5-2.9,17.6-3.4,18.1C828.4,554.7,816.8,545.4,813.1,541.9z
	 M904.4,169c0-0.1-3.6-6.9-5.2-10.5c-0.1-0.2-0.2-0.8-0.3-1.2c-0.1-0.3-0.2-0.5-0.4-0.7c-0.2-0.1-0.4-0.1-0.6,0.1l-9.7,9.1l0,0
	c-0.1,0.1-0.2,0.4-0.3,0.6c0,0.2,0,0.5,0.1,0.7c0.1,0.1,1,1.8,1.5,2.7c1.8,2.7,4.8,8.9,4.8,9c0.1,0.2,0.3,0.4,0.5,0.4
	c0.2,0,0.4-0.1,0.5-0.2c0,0,1.3-1.8,2-2.7c1.1-1.2,2.2-2.4,3.4-3.5c0.9-0.9,1.2-1,1.5-1.2c0.4-0.2,0.8-0.4,1.8-1.4
	C904.5,169.9,904.6,169.3,904.4,169z M24.3,568.1L24.3,568.1c0-0.5-0.4-0.9-0.9-0.9c-0.1,0-0.2,0-0.3,0.1c-1.2,0.1-10.5,0.1-16.4,0
	c-0.2,0-0.4,0.1-0.7,0.3c-0.1,0.1-0.3,0.4-0.3,0.7c0,0.1,0,3.6,0.1,4.4l0.3,10c0,0.2,0.1,0.4,0.3,0.7c0.1,0.1,0.4,0.2,0.6,0.2h0.1
	c5.4-0.5,10.8-0.7,16.2-0.4c0.2,0,0.5-0.1,0.7-0.2c0.1-0.1,0.3-0.4,0.3-0.7C24.3,577.7,24.3,572.4,24.3,568.1z"/>
<path class="st2" d="M126.2,282.8c1-1.8,10.5-16.2,11.5-15.9c0.6,0.2,8.5,15.6,8.5,16.3C146.1,283.3,131.2,283.2,126.2,282.8z
	 M439.8,525c-0.1-0.1-4.9-6-7.2-9.2c-0.1-0.2-0.4-0.7-0.5-1.1c-0.1-0.3-0.3-0.5-0.5-0.6c-0.2-0.1-0.4,0-0.6,0.2l-7.7,10.8l0,0
	c-0.1,0.1-0.1,0.4-0.1,0.7c0,0.2,0.1,0.5,0.3,0.7c0.1,0.1,1.3,1.6,2.1,2.3c2.3,2.3,6.5,7.7,6.6,7.8c0.1,0.2,0.4,0.3,0.6,0.3
	c0.2,0,0.4-0.1,0.4-0.4c0,0,0.9-2.1,1.5-3c0.8-1.4,1.7-2.7,2.6-4.1c0.7-1,1-1.3,1.3-1.5c0.4-0.3,0.7-0.5,1.5-1.8
	C440.2,525.9,440.1,525.3,439.8,525z M536.5,132.7L536.5,132.7c0.4,0.1,1-0.1,1-0.6c0-0.1,0-0.1,0-0.3c0.1-1,2.1-9.3,3.3-14.4
	c0.1-0.2,0-0.4-0.1-0.6c-0.1-0.2-0.4-0.3-0.6-0.4c-0.1,0-3.5-0.8-4.2-1l-9.9-2c-0.2-0.1-0.5,0-0.7,0.1c-0.1,0.1-0.3,0.3-0.4,0.4v0.1
	c-0.6,4.8-1.6,9.7-2.9,14.3c-0.1,0.2,0,0.4,0.1,0.7c0.1,0.2,0.4,0.3,0.6,0.4C527.2,130.5,532.3,131.6,536.5,132.7z M537.3,131.3
	c-0.1-0.1-0.1-0.1-0.3-0.1C537.1,131.2,537.2,131.3,537.3,131.3z"/>
<g class="st3">
	<path class="st4" d="M516,348.6c-1.1,0-2.1-0.6-2.6-1.7c-0.6-1.4,0-3.1,1.4-3.7c2.7-1.2,5-3.5,6.2-6.3c1.2-2.8,1.3-6,0.1-8.8
		c-0.2-0.7-0.6-1.3-0.9-2.1c-0.6-1.3-1.3-2.7-1.7-4.4c-0.7-3-0.1-6.3,1.5-9.4c1.3-2.3,3-4.5,5.6-6.7c1.2-1,3-0.9,3.9,0.3
		c1,1.2,0.9,3-0.3,3.9c-2.1,1.8-3.5,3.5-4.4,5.2c-1,1.9-1.4,3.9-1,5.6c0.2,1,0.7,2.1,1.3,3.2c0.4,0.8,0.7,1.6,1.1,2.4
		c1.5,4.1,1.5,8.9-0.2,13c-1.7,4.1-5,7.4-9.1,9.2C516.7,348.5,516.3,348.6,516,348.6z M546,310.8c1.1-0.1,2.2,0.4,2.8,1.4
		c0.8,1.3,0.3,3.1-1,3.9c-2.7,1.5-4.7,4.1-5.6,7c-0.9,3-0.6,6.2,0.8,8.9c0.3,0.7,0.7,1.3,1.2,2c0.7,1.3,1.6,2.6,2.2,4.2
		c1,3,0.9,6.4-0.4,9.7c-1,2.5-2.6,4.9-5,7.4c-1.1,1.2-2.9,1.3-4.1,0.1c-1.2-1-1.3-2.9-0.1-4c1.9-2.1,3.2-3.9,3.9-5.7
		c0.8-2.1,1-4.1,0.4-5.8c-0.4-1-1-2-1.6-3c-0.4-0.7-1-1.5-1.4-2.4c-2.1-4-2.5-8.8-1.3-13.1c1.3-4.4,4.3-8.1,8.3-10.3
		C545.3,310.9,545.7,310.8,546,310.8z M192.7,435.8c4.2,5,6.6,11.6,6.9,16.5c0.4,5.4-1.8,12.1-7.5,15c-2.2,1.1-4.9,1.6-8.3,1.6
		c-5.8-0.1-9.5-2.1-11.4-6.2c-1.5-3.5-1.7-8.4,1.3-11.7c2.4-2.6,5.8-3,8.3-1.2c0.9,0.7,1.1,2,0.4,2.9c-0.7,0.9-2,1.1-2.9,0.4
		c-1.3-1-2.7,0.4-2.8,0.6c-1.8,1.9-1.5,5.2-0.6,7.3c1.1,2.5,3.5,3.7,7.7,3.8c2.7,0,4.7-0.4,6.3-1.2c3.5-1.8,5.7-6.3,5.3-11.1
		c-0.4-5.4-3.9-13.4-9.6-17.6c-3.1-2.3-6.3-3-9.5-2.3c-2.3,0.5-4.6,1.8-7.2,3.7c-4.9,3.8-8.6,8.7-10.5,14c-2,5.7-1.5,11.7,1.4,17.6
		c0.5,1,0.1,2.3-1,2.7c-1,0.5-2.3,0.1-2.7-1c-3.4-6.9-4-14.2-1.6-20.8c2.1-6,6.3-11.7,11.9-15.9c3-2.3,5.9-3.8,8.7-4.4
		c4.4-1,8.8,0,12.9,3C190,432.8,191.5,434.2,192.7,435.8z"/>
	<circle class="st4" cx="747.6" cy="113.5" r="5.2"/>
	<circle class="st4" cx="755.4" cy="97.4" r="5.2"/>
	<circle class="st4" cx="765" cy="109.8" r="5.2"/>
	<path class="st4" d="M1112.7,219.2c-3.5-4-7.2-8-10.9-11.9c4.1-4.1,8.2-8.5,11.5-13.4c0.9-1.3,0.5-3-0.7-3.8
		c-1.3-0.9-3-0.5-3.8,0.7c-3.1,4.6-6.7,8.6-10.7,12.5c-3.5-3.7-7.2-7.4-10.8-11c-1.1-1.1-2.9-1.1-3.9,0c-1.1,1.1-1.1,2.9,0,3.9
		c3.6,3.5,7.2,7.2,10.7,10.9c-0.8,0.8-1.7,1.6-2.6,2.4c-3,2.8-6.2,5.8-9.1,8.9c-1,1.1-1,2.8,0,3.9l0,0c1.1,1,2.9,1,3.9-0.1
		c2.9-3,6-5.8,8.9-8.6c0.9-0.8,1.7-1.6,2.6-2.4c3.6,3.9,7.2,7.8,10.8,11.7c0.1,0.1,0.1,0.1,0.1,0.1c1,1,2.7,1.1,3.8,0.1
		C1113.6,222.1,1113.7,220.4,1112.7,219.2z M241.6,183.3l-0.3-1.9c-1.1-8.2-1.6-17.1-1.7-27.3c0-4.1,0-8.5,0.1-13.6
		c0-0.5,0-1.1,0-1.7c0-3.7,0-8.3,2.9-10c1.6-1,3.8-0.7,6.3,0.7c4.2,2.3,9.7,6.4,12.9,11c4.1,5.8,5.4,12.5,3.7,19
		c-2.4,9.1-11.1,22.9-22.1,23.7L241.6,183.3z M244.9,132.2c-0.1,0-0.2,0-0.3,0.1c-0.1,0.1-0.5,0.4-0.8,2c-0.2,1.4-0.2,3.1-0.2,4.6
		c0,0.6,0,1.3,0,1.8c-0.1,5.1-0.1,9.4-0.1,13.5c0.1,9.2,0.5,17.3,1.5,24.9c8.1-2,15-13.3,17-20.5c1.4-5.3,0.3-10.9-3.1-15.7l0,0
		c-2.9-4.1-8-7.8-11.7-9.8C246,132.4,245.3,132.2,244.9,132.2z M380.8,44.8c-0.1,0-0.1,0-0.3-0.1c-1.8-0.5-3-0.7-4.9-0.5
		c-0.5,0-1-0.4-1-0.9c0-0.5,0.4-1,0.9-1c2.3-0.1,3.6,0,5.6,0.6c0.5,0.1,0.8,0.7,0.7,1.2C381.5,44.5,381.1,44.8,380.8,44.8z
		 M373.2,52c-0.4,0-0.7-0.2-0.9-0.6c-0.6-1.5-0.9-3.2-1-4.9c0-0.5,0.4-1,0.9-1c0.5,0,1,0.4,1,0.9c0.1,1.5,0.4,2.9,0.8,4.3
		c0.1,0.5-0.1,1-0.6,1.2C373.5,52,373.3,52,373.2,52z M364.4,47.5c-0.3,0-0.6-0.1-0.7-0.4c-0.3-0.4-0.2-1,0.1-1.3
		c1.3-1,2.7-1.9,4.3-2.7c0.4-0.2,1,0,1.3,0.4c0.2,0.4,0,1-0.4,1.3c-1.4,0.7-2.7,1.5-3.9,2.4C364.8,47.4,364.6,47.5,364.4,47.5z
		 M369.1,40.8c-0.4,0-0.7-0.2-0.9-0.5c-0.4-0.7-0.9-1.4-1.8-2.5c-0.2-0.3-0.5-0.7-0.8-1c-0.3-0.4-0.2-1,0.1-1.3
		c0.4-0.3,1-0.2,1.3,0.1c0.3,0.4,0.6,0.7,0.8,1c1,1.2,1.5,1.9,2,2.9c0.2,0.4,0,1-0.4,1.3C369.4,40.8,369.3,40.8,369.1,40.8z
		 M373.7,40.6c-0.2,0-0.4-0.1-0.6-0.1c-0.4-0.3-0.5-0.9-0.2-1.3c0.9-1.3,1.7-2.5,2.4-3.8c0.2-0.4,0.8-0.7,1.3-0.4
		c0.4,0.2,0.7,0.8,0.4,1.3c-0.7,1.4-1.6,2.8-2.6,4.1C374.2,40.4,374,40.6,373.7,40.6z M759.1,282.3c-0.1,0-0.1,0-0.3-0.1
		c-1.8-0.5-3-0.7-4.9-0.5c-0.5,0-1-0.4-1-0.9c0-0.5,0.4-1,0.9-1c2.3-0.1,3.6,0,5.6,0.6c0.5,0.1,0.8,0.7,0.7,1.2
		C759.8,282,759.5,282.3,759.1,282.3z M751.6,289.5c-0.4,0-0.7-0.2-0.9-0.6c-0.6-1.5-0.9-3.2-1-4.9c0-0.5,0.4-1,0.9-1s1,0.4,1,0.9
		c0.1,1.5,0.4,2.9,0.8,4.3c0.1,0.5-0.1,1-0.6,1.2C751.8,289.5,751.7,289.5,751.6,289.5z M742.7,285c-0.3,0-0.6-0.1-0.7-0.4
		c-0.3-0.4-0.2-1,0.1-1.3c1.3-1,2.7-1.9,4.3-2.7c0.4-0.2,1,0,1.3,0.4s0,1-0.4,1.3c-1.4,0.7-2.7,1.5-3.9,2.4
		C743.2,284.9,743,285,742.7,285z M747.5,278.3c-0.4,0-0.7-0.2-0.9-0.5c-0.4-0.7-0.9-1.4-1.8-2.5c-0.2-0.3-0.5-0.7-0.8-1
		c-0.3-0.4-0.2-1,0.1-1.3c0.4-0.3,1-0.2,1.3,0.1s0.6,0.7,0.8,1c1,1.2,1.5,1.9,2,2.9c0.2,0.4,0,1-0.4,1.3
		C747.8,278.3,747.6,278.3,747.5,278.3z M752,278c-0.2,0-0.4-0.1-0.6-0.1c-0.4-0.3-0.5-0.9-0.2-1.3c0.9-1.3,1.7-2.5,2.4-3.8
		c0.2-0.4,0.8-0.7,1.3-0.4c0.4,0.2,0.7,0.8,0.4,1.3c-0.7,1.4-1.6,2.8-2.6,4.1C752.5,277.9,752.3,278,752,278z M980.7,422.9
		c-1,0-2.1-0.1-3.3-0.5c-6.2-2-12.2-9.4-13.8-14.8c-0.3-1-0.5-2.1-0.7-3.2c-6,2.4-11.4,7.8-11.4,15.5c0,1.1-0.9,2-2,2.1l0,0
		c-1.1,0-2-0.9-2-2c-0.1-4.9,1.8-9.5,5.2-13.3c2.7-2.9,6.2-5.2,10.1-6.5c0.4-4.8,2.3-9.5,5.5-12.8c5.2-5.5,13.4-6.6,20.1-7.4
		l0.5-0.1c1.1-0.1,2.1,0.7,2.3,1.7c0.1,1.1-0.7,2.1-1.7,2.3l-0.5,0.1c-6.3,0.9-13.6,1.8-17.7,6.2c-2.2,2.4-3.7,5.7-4.2,9.1
		c5.8-0.7,13.1,1,17.9,4.2c3.2,2.1,5.2,5.8,5.3,9.4c0.1,3.2-1.3,6.1-3.8,8.2C984.7,422.1,982.8,422.9,980.7,422.9z M966.9,403.2
		c0.1,1.1,0.3,2.2,0.6,3.2c1.3,4.3,6.4,10.5,11.1,12c2.1,0.7,3.8,0.4,5.3-0.8c2-1.5,2.4-3.5,2.3-4.9c-0.1-2.4-1.5-4.7-3.5-6.1
		C978.4,403.8,971.8,402.4,966.9,403.2z"/>
</g>
</svg>
